<svg viewBox="0 0 340 480" xmlns="http://www.w3.org/2000/svg" font-family="Arial, sans-serif">
  <defs>
    <linearGradient id="cardBg" x1="0" y1="0" x2="1" y2="1">
      <stop offset="0" stop-color="#CD7F32" />
      <stop offset="0.55" stop-color="#5A3A18" />
      <stop offset="1" stop-color="#CD7F32" />
    </linearGradient>
    <radialGradient id="cardSheen" cx="0.3" cy="0.08" r="0.7">
      <stop offset="0" stop-color="#ffffff" stop-opacity="0.35" />
      <stop offset="1" stop-color="#ffffff" stop-opacity="0" />
    </radialGradient>
    <pattern id="cardTexture" width="10" height="10" patternTransform="rotate(45)" patternUnits="userSpaceOnUse">
      <line x1="0" y1="0" x2="0" y2="10" stroke="#2A1A0C" stroke-opacity="0.05" stroke-width="4" />
    </pattern>
    <clipPath id="shieldClip">
      <path d="M 34 6 L 306 6 Q 334 6 334 34 L 334 396 Q 334 414 320 424 L 316 428 L 194 468 Q 170 480 146 468 L 24 428 L 20 424 Q 6 414 6 396 L 6 34 Q 6 6 34 6 Z" />
    </clipPath>
  </defs>

  <path d="M 34 6 L 306 6 Q 334 6 334 34 L 334 396 Q 334 414 320 424 L 316 428 L 194 468 Q 170 480 146 468 L 24 428 L 20 424 Q 6 414 6 396 L 6 34 Q 6 6 34 6 Z" fill="url(#cardBg)" stroke="#2A1A0C" stroke-opacity="0.35" stroke-width="2" />
  <path d="M 34 6 L 306 6 Q 334 6 334 34 L 334 396 Q 334 414 320 424 L 316 428 L 194 468 Q 170 480 146 468 L 24 428 L 20 424 Q 6 414 6 396 L 6 34 Q 6 6 34 6 Z" fill="url(#cardTexture)" />
  <path d="M 34 6 L 306 6 Q 334 6 334 34 L 334 396 Q 334 414 320 424 L 316 428 L 194 468 Q 170 480 146 468 L 24 428 L 20 424 Q 6 414 6 396 L 6 34 Q 6 6 34 6 Z" fill="url(#cardSheen)" />

  <g clip-path="url(#shieldClip)">
    <text x="26" y="72" font-size="46" font-weight="800" fill="#2A1A0C" font-family="'Arial Black', Arial, sans-serif">41</text>
    <text x="26" y="96" font-size="15" font-weight="700" fill="#2A1A0C" opacity="0.9">CDM</text>

    <text x="312" y="34" font-size="12" font-weight="700" fill="#2A1A0C" opacity="0.75" text-anchor="end">US</text>
    <text x="312" y="50" font-size="11" font-weight="800" fill="#2A1A0C" opacity="0.85" text-anchor="end">BRONZE</text>
    <text x="312" y="64" font-size="8" font-weight="700" fill="#2A1A0C" opacity="0.55" text-anchor="end">FULL EXPORT</text>

    <circle cx="170" cy="172" r="64" fill="#ffffff" fill-opacity="0.22" stroke="#2A1A0C" stroke-width="2" stroke-opacity="0.45" />
    <text x="170" y="187" font-size="46" font-weight="800" fill="#2A1A0C" text-anchor="middle">JS</text>

    <rect x="6" y="266" width="328" height="34" fill="#2A1A0C" fill-opacity="0.14" />
    <text x="170" y="289" font-size="24" font-weight="800" fill="#2A1A0C" text-anchor="middle" letter-spacing="0.5">JANE SCOUT</text>

    <text x="170" y="316" font-size="11" fill="#2A1A0C" text-anchor="middle" opacity="0.8">Senior Software Engineer @ Acme</text>
    <text x="170" y="332" font-size="12" font-weight="700" fill="#2A1A0C" text-anchor="middle" opacity="0.9">Veteran</text>

    
    <text x="42" y="360" font-size="19" font-weight="800" fill="#2A1A0C" font-family="'Arial Black', Arial, sans-serif">51</text>
    <text x="74" y="360" font-size="13" font-weight="700" fill="#2A1A0C" font-family="Arial, sans-serif" opacity="0.85">PAC</text>

    <text x="42" y="390" font-size="19" font-weight="800" fill="#2A1A0C" font-family="'Arial Black', Arial, sans-serif">45</text>
    <text x="74" y="390" font-size="13" font-weight="700" fill="#2A1A0C" font-family="Arial, sans-serif" opacity="0.85">SHO</text>

    <text x="42" y="420" font-size="19" font-weight="800" fill="#2A1A0C" font-family="'Arial Black', Arial, sans-serif">17</text>
    <text x="74" y="420" font-size="13" font-weight="700" fill="#2A1A0C" font-family="Arial, sans-serif" opacity="0.85">PAS</text>
    
    <text x="192" y="360" font-size="19" font-weight="800" fill="#2A1A0C" font-family="'Arial Black', Arial, sans-serif">41</text>
    <text x="224" y="360" font-size="13" font-weight="700" fill="#2A1A0C" font-family="Arial, sans-serif" opacity="0.85">DRI</text>

    <text x="192" y="390" font-size="19" font-weight="800" fill="#2A1A0C" font-family="'Arial Black', Arial, sans-serif">18</text>
    <text x="224" y="390" font-size="13" font-weight="700" fill="#2A1A0C" font-family="Arial, sans-serif" opacity="0.85">DEF</text>

    <text x="192" y="420" font-size="19" font-weight="800" fill="#2A1A0C" font-family="'Arial Black', Arial, sans-serif">74</text>
    <text x="224" y="420" font-size="13" font-weight="700" fill="#2A1A0C" font-family="Arial, sans-serif" opacity="0.85">PHY</text>
  </g>
</svg>